<svg xmlns="http://www.w3.org/2000/svg" width="95" height="80" viewBox="0 0 95 80">
  <metadata><?xpacket begin="﻿" id="W5M0MpCehiHzreSzNTczkc9d"?>
<x:xmpmeta xmlns:x="adobe:ns:meta/" x:xmptk="Adobe XMP Core 5.6-c138 79.159824, 2016/09/14-01:09:01        ">
   <rdf:RDF xmlns:rdf="http://www.w3.org/1999/02/22-rdf-syntax-ns#">
      <rdf:Description rdf:about=""/>
   </rdf:RDF>
</x:xmpmeta>
                                                                                                    
                                                                                                    
                                                                                                    
                                                                                                    
                                                                                                    
                                                                                                    
                                                                                                    
                                                                                                    
                                                                                                    
                                                                                                    
                                                                                                    
                                                                                                    
                                                                                                    
                                                                                                    
                                                                                                    
                                                                                                    
                                                                                                    
                                                                                                    
                                                                                                    
                                                                                                    
                           
<?xpacket end="w"?></metadata>
<defs>
    <style>
      .cls-1 {
        fill: #bdd4de;
        fill-rule: evenodd;
      }
    </style>
  </defs>
  <path id="Forma_1" data-name="Forma 1" class="cls-1" d="M30.3,36.255a25.233,25.233,0,0,0-6.992-1.024,21.916,21.916,0,0,0-8.767,1.8c2.2-8.092,7.5-22.055,18.044-23.627A2.508,2.508,0,0,0,34.628,11.6l2.3-8.269A2.512,2.512,0,0,0,34.861.165,17.455,17.455,0,0,0,32.5,0C19.844,0,7.308,13.256,2.017,32.231-1.088,43.363-2,60.1,5.651,70.634c4.28,5.895,10.525,9.043,18.561,9.357l0.1,0A22.291,22.291,0,0,0,30.3,36.255ZM92.365,46.778A22.277,22.277,0,0,0,79.008,36.255a25.233,25.233,0,0,0-6.992-1.024,21.916,21.916,0,0,0-8.767,1.8c2.2-8.092,7.5-22.055,18.044-23.627A2.508,2.508,0,0,0,83.336,11.6l2.305-8.269A2.512,2.512,0,0,0,83.57.165,17.455,17.455,0,0,0,81.212,0c-12.659,0-25.2,13.252-30.485,32.227-3.1,11.132-4.015,27.87,3.634,38.4,4.28,5.895,10.525,9.042,18.561,9.357l0.1,0A22.291,22.291,0,0,0,92.365,46.778Z"/>
</svg>
