<svg xmlns="http://www.w3.org/2000/svg" width="60" height="55" viewBox="0 0 60 55">
  <metadata><?xpacket begin="﻿" id="W5M0MpCehiHzreSzNTczkc9d"?>
<x:xmpmeta xmlns:x="adobe:ns:meta/" x:xmptk="Adobe XMP Core 5.6-c138 79.159824, 2016/09/14-01:09:01        ">
   <rdf:RDF xmlns:rdf="http://www.w3.org/1999/02/22-rdf-syntax-ns#">
      <rdf:Description rdf:about=""/>
   </rdf:RDF>
</x:xmpmeta>
                                                                                                    
                                                                                                    
                                                                                                    
                                                                                                    
                                                                                                    
                                                                                                    
                                                                                                    
                                                                                                    
                                                                                                    
                                                                                                    
                                                                                                    
                                                                                                    
                                                                                                    
                                                                                                    
                                                                                                    
                                                                                                    
                                                                                                    
                                                                                                    
                                                                                                    
                                                                                                    
                           
<?xpacket end="w"?></metadata>
<defs>
    <style>
      .cls-1 {
        fill: #fff;
        fill-rule: evenodd;
      }
    </style>
  </defs>
  <path id="Forma_1" data-name="Forma 1" class="cls-1" d="M41.014,42.889l-9.553-4.776A2.63,2.63,0,0,1,30,35.748V32.367c0.229-.28.47-0.6,0.719-0.951a22.886,22.886,0,0,0,2.954-5.8A3.968,3.968,0,0,0,36,22V18a3.988,3.988,0,0,0-1-2.625V10.056a8.965,8.965,0,0,0-2.092-6.525C30.854,1.188,27.521,0,23,0s-7.854,1.188-9.908,3.53A8.965,8.965,0,0,0,11,10.055v5.319A3.988,3.988,0,0,0,10,18v4a3.976,3.976,0,0,0,1.5,3.109A20.987,20.987,0,0,0,15,32.345v3.309a2.642,2.642,0,0,1-1.377,2.32L4.7,42.84A9.02,9.02,0,0,0,0,50.762V55H46V50.957A8.972,8.972,0,0,0,41.014,42.889Zm14.453,1.137-9.723-4.21a1.982,1.982,0,0,1-.7-0.771l6.525-.005s0.377,0.037.962,0.037a10.507,10.507,0,0,0,4-.707,2.97,2.97,0,0,0,1.243-4.43c-1.865-2.654-6.218-9.589-6.354-16.623,0-.121-0.4-12.083-12.21-12.18a14.825,14.825,0,0,0-3.372.413,10.8,10.8,0,0,1,.665,4.576v4.733A5.464,5.464,0,0,1,37.5,18v4a5.5,5.5,0,0,1-2.607,4.662,24.3,24.3,0,0,1-2.949,5.621q-0.225.32-.443,0.6v2.86a1.122,1.122,0,0,0,.631,1.022l9.553,4.776a10.463,10.463,0,0,1,5.815,9.41V55H60V51.3A8.084,8.084,0,0,0,55.467,44.026Z"/>
</svg>
