<svg id="Слой_12" data-name="Слой 12" xmlns="http://www.w3.org/2000/svg" viewBox="0 0 177.49 210"><defs><style>.cls-1,.cls-3{fill:none;}.cls-1,.cls-2,.cls-3{stroke:#000;stroke-miterlimit:10;stroke-width:6px;}.cls-1,.cls-2{stroke-linecap:round;}.cls-2{fill:#fff;}</style></defs><title>IT</title><line class="cls-1" x1="88.34" y1="207" x2="88.34" y2="11.13"/><line class="cls-1" x1="3" y1="195.62" x2="174.49" y2="195.62"/><circle class="cls-2" cx="88.34" cy="195.62" r="11.38"/><path class="cls-2" d="M482.93,274h95.7a6.71,6.71,0,0,1,6.71,6.71v32.1a6.71,6.71,0,0,1-6.71,6.71h-154a6.71,6.71,0,0,1-6.71-6.71v-32.1a6.71,6.71,0,0,1,6.71-6.71h47.75" transform="translate(-412.88 -271)"/><rect class="cls-3" x="78.18" y="15.25" width="78.84" height="20.13" rx="6.25" ry="6.25"/><line class="cls-3" x1="126.13" y1="16" x2="126.13" y2="34.7"/><line class="cls-3" x1="141.57" y1="16" x2="141.57" y2="34.7"/><circle cx="65.99" cy="24.94" r="4.06"/><line class="cls-1" x1="25.35" y1="3" x2="25.35" y2="12.75"/><line class="cls-1" x1="35.51" y1="3" x2="35.51" y2="12.75"/><line class="cls-1" x1="45.67" y1="3" x2="45.67" y2="12.75"/><path class="cls-2" d="M442.9,376.41H424.61a6.71,6.71,0,0,1-6.71-6.71V337.6a6.71,6.71,0,0,1,6.71-6.71h154a6.71,6.71,0,0,1,6.71,6.71v32.1a6.71,6.71,0,0,1-6.71,6.71h-126" transform="translate(-412.88 -271)"/><rect class="cls-3" x="78.18" y="72.15" width="78.84" height="20.13" rx="6.25" ry="6.25"/><line class="cls-3" x1="126.13" y1="72.9" x2="126.13" y2="91.59"/><line class="cls-3" x1="141.57" y1="72.9" x2="141.57" y2="91.59"/><circle cx="65.99" cy="81.84" r="4.06"/><line class="cls-1" x1="25.35" y1="59.89" x2="25.35" y2="69.65"/><line class="cls-1" x1="35.51" y1="59.89" x2="35.51" y2="69.65"/><line class="cls-1" x1="45.67" y1="59.89" x2="45.67" y2="69.65"/><path class="cls-2" d="M540.63,432.49h-116a6.71,6.71,0,0,1-6.71-6.71v-32.1a6.71,6.71,0,0,1,6.71-6.71h154a6.71,6.71,0,0,1,6.71,6.71v32.1a6.71,6.71,0,0,1-6.71,6.71H549" transform="translate(-412.88 -271)"/><rect class="cls-3" x="78.18" y="128.23" width="78.84" height="20.13" rx="6.25" ry="6.25"/><line class="cls-3" x1="126.13" y1="128.98" x2="126.13" y2="147.67"/><line class="cls-3" x1="141.57" y1="128.98" x2="141.57" y2="147.67"/><circle cx="65.99" cy="137.92" r="4.06"/><line class="cls-1" x1="25.35" y1="115.97" x2="25.35" y2="125.73"/><line class="cls-1" x1="35.51" y1="115.97" x2="35.51" y2="125.73"/><line class="cls-1" x1="45.67" y1="115.97" x2="45.67" y2="125.73"/></svg>