<svg id="Слой_5" data-name="Слой 5" xmlns="http://www.w3.org/2000/svg" viewBox="0 0 284.09 218.4"><defs><style>.cls-1{fill:#fff;stroke-width:6px;}.cls-1,.cls-2{stroke:#000;stroke-miterlimit:10;}.cls-2{fill:none;stroke-linecap:round;stroke-width:4px;}</style></defs><title>Бизнес_под_ключ</title><path class="cls-1" d="M1051.64,155.37h50.84a17.88,17.88,0,0,0,17.88-17.88h0a17.88,17.88,0,0,0-17.88-17.88h-61a7.75,7.75,0,0,1-1.19-.09h0a46.19,46.19,0,0,1-9.3-2.4,66.09,66.09,0,0,0-23.44-4.22c-30.85,0-55.86,20.51-55.86,45.81l44.69,51.39,16.23-17.94a17.61,17.61,0,0,1,12.43-5.78l81.59-2.89a32.6,32.6,0,0,0,23.31-11l49.82-56.58a17.88,17.88,0,0,0-1.6-25.23h0a17.88,17.88,0,0,0-25.23,1.6l-34.77,38.53" transform="translate(-903.1 -33)"/><circle cx="127.32" cy="119.57" r="5.03"/><path class="cls-1" d="M931.08,167.18H988.8a18.15,18.15,0,0,1,18.15,18.15v36.62a0,0,0,0,1,0,0h-94a0,0,0,0,1,0,0V185.33A18.15,18.15,0,0,1,931.08,167.18Z" transform="translate(-484.36 -654.8) rotate(45)"/><g id="Слой_6" data-name="Слой 6"><polygon class="cls-1" points="107.86 21.32 89.36 34.42 104.32 46.13 113.28 46.13 116.92 43.08 121.94 38.88 126.96 43.08 130.61 46.13 138.38 46.13 142.03 43.08 147.04 38.88 152.06 43.08 155.71 46.13 169.49 46.13 169.49 21.32 107.86 21.32"/><line class="cls-2" x1="97.08" y1="29.34" x2="152.11" y2="29.34"/><circle class="cls-1" cx="197.16" cy="33.72" r="30.72"/><circle class="cls-1" cx="212.94" cy="33.18" r="6.72"/></g></svg>