<svg id="Слой_1" data-name="Слой 1" xmlns="http://www.w3.org/2000/svg" viewBox="0 0 141.56 204.61"><defs><style>.cls-1,.cls-2{fill:#fff;}.cls-1{stroke:#000;stroke-miterlimit:10;stroke-width:6px;}.cls-3{fill:#020202;}</style></defs><title>Мобильные_приложения</title><rect class="cls-1" x="3" y="3" width="100.15" height="197" rx="11" ry="11"/><rect class="cls-1" x="11.79" y="12.86" width="82.58" height="177.29" rx="11" ry="11"/><circle class="cls-2" cx="54.37" cy="68.25" r="26.6"/><path class="cls-3" d="M107,118a29,29,0,1,1,29-29A29,29,0,0,1,107,118Zm0-53.21A24.21,24.21,0,1,0,131.21,89,24.23,24.23,0,0,0,107,64.79Z" transform="translate(-52.63 -20.75)"/><path d="M80.88,81.81v7l.6,0a20.73,20.73,0,0,1,20.35,24.69h9.87A20.73,20.73,0,0,1,132,88.76h.12v-7Zm26.36,15.1a5.51,5.51,0,1,1,5.51-5.51A5.51,5.51,0,0,1,107.24,96.91Z" transform="translate(-52.63 -20.75)"/><circle cx="54.61" cy="70.65" r="1.68"/><path class="cls-1" d="M133.71,169.44l-18.85-39.25A8.16,8.16,0,0,0,104,126.37h0a8.16,8.16,0,0,0-3.82,10.89l26.9,56h0l-28-7a13.12,13.12,0,0,0-15.94,9.49h0a6,6,0,0,0,4.38,7.35l57.64,18.26a25.21,25.21,0,0,0,17.8-1.53l13.22-6.35a25,25,0,0,0,12.18-12.61,33.69,33.69,0,0,0,2.06-20.69l-13.77-34.46a8.16,8.16,0,0,0-10.89-3.82h0a8.16,8.16,0,0,0-3.82,10.89l1.9,4" transform="translate(-52.63 -20.75)"/><path class="cls-1" d="M162.16,209.82" transform="translate(-52.63 -20.75)"/><path class="cls-1" d="M133.71,169.44l-8.53-17.75A8.16,8.16,0,0,1,129,140.8h0a8.16,8.16,0,0,1,10.89,3.82l8.9,18.53" transform="translate(-52.63 -20.75)"/><path class="cls-1" d="M149,163.51,143.42,152a8.16,8.16,0,0,1,3.82-10.89h0a8.16,8.16,0,0,1,10.89,3.82l5.5,11.46" transform="translate(-52.63 -20.75)"/></svg>