<svg id="Слой_8" data-name="Слой 8" xmlns="http://www.w3.org/2000/svg" viewBox="0 0 200.44 202"><defs><style>.cls-1,.cls-2{fill:none;}.cls-1,.cls-2,.cls-3,.cls-4{stroke:#000;stroke-miterlimit:10;stroke-width:6px;}.cls-1,.cls-4{stroke-linecap:round;}.cls-3,.cls-4{fill:#fff;}</style></defs><title>Полный_ввод</title><line class="cls-1" x1="123.17" y1="43.83" x2="78.83" y2="43.83"/><line class="cls-2" x1="42.67" y1="146.95" x2="164.78" y2="146.95"/><rect class="cls-3" x="17" y="131.01" width="25.67" height="31.89" rx="12.83" ry="12.83"/><path class="cls-3" d="M29.44,164.78h0a26.44,26.44,0,0,1,26.44,26.44V199a0,0,0,0,1,0,0H3a0,0,0,0,1,0,0v-7.78A26.44,26.44,0,0,1,29.44,164.78Z"/><line class="cls-4" x1="17" y1="187.33" x2="17" y2="199"/><line class="cls-4" x1="43.44" y1="187.33" x2="43.44" y2="199"/><rect class="cls-3" x="88.56" y="131.01" width="25.67" height="31.89" rx="12.83" ry="12.83"/><path class="cls-3" d="M101,164.78h0a26.44,26.44,0,0,1,26.44,26.44V199a0,0,0,0,1,0,0H74.56a0,0,0,0,1,0,0v-7.78A26.44,26.44,0,0,1,101,164.78Z"/><line class="cls-4" x1="88.56" y1="187.33" x2="88.56" y2="199"/><line class="cls-4" x1="115" y1="187.33" x2="115" y2="199"/><rect class="cls-3" x="158.56" y="131.01" width="25.67" height="31.89" rx="12.83" ry="12.83"/><path class="cls-3" d="M171,164.78h0a26.44,26.44,0,0,1,26.44,26.44V199a0,0,0,0,1,0,0H144.56a0,0,0,0,1,0,0v-7.78A26.44,26.44,0,0,1,171,164.78Z"/><line class="cls-4" x1="158.56" y1="187.33" x2="158.56" y2="199"/><line class="cls-4" x1="185" y1="187.33" x2="185" y2="199"/><circle class="cls-3" cx="65.22" cy="146.95" r="8.56"/><circle class="cls-3" cx="139.11" cy="146.95" r="8.56"/><path class="cls-4" d="M1672.5,129.08v8a10.11,10.11,0,0,1-10.11,10.11h0a10.11,10.11,0,0,1-10.11-10.11v-7.89a2.83,2.83,0,0,1,2.81-2.83l14.56-.14A2.83,2.83,0,0,1,1672.5,129.08Z" transform="translate(-1561 -26)"/><path class="cls-3" d="M1703.22,69.83a40.83,40.83,0,1,0-68,30.48,24.82,24.82,0,0,1,8.49,18.49v6.25a8.94,8.94,0,0,0,8.94,8.94h19.44a8.94,8.94,0,0,0,8.94-8.94V118.8a24.1,24.1,0,0,1,8.15-18.19A40.71,40.71,0,0,0,1703.22,69.83Z" transform="translate(-1561 -26)"/><line class="cls-1" x1="95.94" y1="81.56" x2="106.83" y2="81.56"/><line class="cls-1" x1="75.72" y1="94" x2="127.06" y2="94"/><line class="cls-1" x1="101" y1="21.67" x2="101" y2="66"/><line class="cls-1" x1="115.58" y1="29.25" x2="86.42" y2="58.42"/><line class="cls-1" x1="85.33" y1="28.16" x2="116.67" y2="59.51"/><circle class="cls-3" cx="100.61" cy="42.28" r="14.39"/></svg>