<svg id="Слой_4" data-name="Слой 4" xmlns="http://www.w3.org/2000/svg" viewBox="0 0 272 201.28"><defs><style>.cls-1{fill:#fff;}.cls-1,.cls-2,.cls-3{stroke:#020202;stroke-miterlimit:10;stroke-width:6px;}.cls-2,.cls-3{fill:none;}.cls-3{stroke-linecap:round;}</style></defs><title>Софт_по_прокату</title><rect class="cls-1" x="3" y="3" width="266" height="195.28" rx="14.25" ry="14.25"/><line class="cls-2" x1="68.44" y1="4.06" x2="68.44" y2="196.17"/><line class="cls-3" x1="12.5" y1="23.06" x2="58.94" y2="23.06"/><line class="cls-3" x1="90.61" y1="23.06" x2="123.33" y2="23.06"/><line class="cls-3" x1="154.47" y1="23.06" x2="187.19" y2="23.06"/><line class="cls-3" x1="218.33" y1="23.06" x2="251.06" y2="23.06"/><line class="cls-3" x1="86.5" y1="88.86" x2="246" y2="88.86"/><line class="cls-3" x1="86.5" y1="106.94" x2="246" y2="106.94"/><line class="cls-3" x1="86.5" y1="125.02" x2="246" y2="125.02"/><line class="cls-3" x1="86.5" y1="143.11" x2="246" y2="143.11"/><line class="cls-3" x1="86.5" y1="70.77" x2="184.38" y2="70.77"/><line class="cls-3" x1="246" y1="179.28" x2="86.5" y2="179.28"/><line class="cls-3" x1="169.87" y1="161.19" x2="86.5" y2="161.19"/><path class="cls-1" d="M17.25,3.75h237.5A14.25,14.25,0,0,1,269,18V49.75a0,0,0,0,1,0,0H3a0,0,0,0,1,0,0V18A14.25,14.25,0,0,1,17.25,3.75Z"/><circle cx="23" cy="26.75" r="7"/><circle cx="43" cy="26.75" r="7"/><circle cx="63" cy="26.75" r="7"/><line class="cls-3" x1="114" y1="27" x2="245" y2="27"/></svg>