<svg id="Слой_3" data-name="Слой 3" xmlns="http://www.w3.org/2000/svg" viewBox="0 0 272 201.28"><defs><style>.cls-1{fill:#fff;}.cls-1,.cls-2,.cls-3{stroke:#020202;stroke-miterlimit:10;stroke-width:6px;}.cls-2,.cls-3{fill:none;}.cls-3{stroke-linecap:round;}</style></defs><title>Софт_по_каршерингу</title><rect class="cls-1" x="3" y="3" width="266" height="195.28" rx="14.25" ry="14.25"/><line class="cls-2" x1="68.44" y1="4.06" x2="68.44" y2="196.17"/><line class="cls-3" x1="12.5" y1="23.06" x2="58.94" y2="23.06"/><line class="cls-3" x1="90.61" y1="23.06" x2="123.33" y2="23.06"/><line class="cls-3" x1="154.47" y1="23.06" x2="187.19" y2="23.06"/><line class="cls-3" x1="218.33" y1="23.06" x2="251.06" y2="23.06"/><line class="cls-3" x1="12.5" y1="75.13" x2="58.94" y2="75.13"/><line class="cls-3" x1="12.5" y1="92.49" x2="58.94" y2="92.49"/><line class="cls-3" x1="12.5" y1="109.85" x2="58.94" y2="109.85"/><line class="cls-3" x1="12.5" y1="127.2" x2="58.94" y2="127.2"/><line class="cls-3" x1="30.44" y1="57.77" x2="58.94" y2="57.77"/><line class="cls-3" x1="12.5" y1="40.41" x2="36.78" y2="40.41"/><line class="cls-3" x1="58.94" y1="179.28" x2="12.5" y2="179.28"/><line class="cls-3" x1="41" y1="144.56" x2="12.5" y2="144.56"/><line class="cls-3" x1="58.94" y1="161.92" x2="34.67" y2="161.92"/><path d="M388.9,149.81q-6,3.12-15,3.12-11.58,0-18.55-7.31t-7-19.19q0-12.77,7.85-20.63t19.83-7.87a32.51,32.51,0,0,1,12.8,2.19v8.76A22.85,22.85,0,0,0,377,105.69q-8.65,0-14,5.53T357.65,126q0,8.79,5,14t13.17,5.21a23.59,23.59,0,0,0,13.06-3.56Z" transform="translate(-262 -21)"/><path d="M440.11,152H429.79l-8.5-14.25a29.83,29.83,0,0,0-2.25-3.36,13.51,13.51,0,0,0-2.23-2.28,7.53,7.53,0,0,0-2.47-1.3,10.27,10.27,0,0,0-3-.41h-3.56V152H399V98.82h17.52a25.34,25.34,0,0,1,6.9.89,16,16,0,0,1,5.49,2.69,12.56,12.56,0,0,1,3.66,4.49,14.16,14.16,0,0,1,1.32,6.29,15.4,15.4,0,0,1-.83,5.18,13.47,13.47,0,0,1-2.37,4.19,14.52,14.52,0,0,1-3.71,3.14,18.52,18.52,0,0,1-4.88,2v.15a13.74,13.74,0,0,1,2.52,1.8q1.08,1,2,2a24.32,24.32,0,0,1,1.91,2.36q.95,1.32,2.1,3.06ZM407.79,106v17.29h7.35a10.88,10.88,0,0,0,3.77-.63,8.61,8.61,0,0,0,3-1.82,8.24,8.24,0,0,0,2-2.89,9.93,9.93,0,0,0,.71-3.82,7.59,7.59,0,0,0-2.41-6q-2.41-2.15-6.94-2.15Z" transform="translate(-262 -21)"/><path d="M503.46,152H494.7V117.6q0-4.23.52-10.35h-.15a35.75,35.75,0,0,1-1.45,5L477.74,152h-6.09l-15.92-39.48a37.19,37.19,0,0,1-1.41-5.31h-.15q.3,3.19.3,10.43V152h-8.16V98.82h12.43l14,35.44a52.54,52.54,0,0,1,2.08,6.09H475q1.37-4.19,2.23-6.23l14.25-35.29h12Z" transform="translate(-262 -21)"/></svg>