<svg xmlns="http://www.w3.org/2000/svg" width="512" height="311" viewBox="0 0 512 311">
  <metadata><?xpacket begin="﻿" id="W5M0MpCehiHzreSzNTczkc9d"?>
<x:xmpmeta xmlns:x="adobe:ns:meta/" x:xmptk="Adobe XMP Core 5.6-c138 79.159824, 2016/09/14-01:09:01        ">
   <rdf:RDF xmlns:rdf="http://www.w3.org/1999/02/22-rdf-syntax-ns#">
      <rdf:Description rdf:about=""/>
   </rdf:RDF>
</x:xmpmeta>
                                                                                                    
                                                                                                    
                                                                                                    
                                                                                                    
                                                                                                    
                                                                                                    
                                                                                                    
                                                                                                    
                                                                                                    
                                                                                                    
                                                                                                    
                                                                                                    
                                                                                                    
                                                                                                    
                                                                                                    
                                                                                                    
                                                                                                    
                                                                                                    
                                                                                                    
                                                                                                    
                           
<?xpacket end="w"?></metadata>
<defs>
    <style>
      .cls-1 {
        fill: #fff;
        fill-rule: evenodd;
      }
    </style>
  </defs>
  <path class="cls-1" d="M511.63,26.18A26.251,26.251,0,0,0,485.4,0H485.37L26.2,0.631A26.218,26.218,0,0,0,.009,26.882L0.364,284.82A26.219,26.219,0,0,0,26.588,311h0.035l459.171-.631a26.253,26.253,0,0,0,26.189-26.252Zm-55.032.076L256.016,165.65,55.046,26.807Zm-115.76,165.7L459.8,284.19l-407.953.56,119.691-92.792a13.111,13.111,0,1,0-16.073-20.718l-128.9,99.934L26.249,38.781l222.333,153.6a13.117,13.117,0,0,0,14.939-.021l221.9-154.21,0.336,232.984-128.85-99.9A13.11,13.11,0,1,0,340.838,191.958Z"/>
</svg>
