<svg xmlns="http://www.w3.org/2000/svg" width="412" height="402" viewBox="0 0 412 402">
  <metadata><?xpacket begin="﻿" id="W5M0MpCehiHzreSzNTczkc9d"?>
<x:xmpmeta xmlns:x="adobe:ns:meta/" x:xmptk="Adobe XMP Core 5.6-c138 79.159824, 2016/09/14-01:09:01        ">
   <rdf:RDF xmlns:rdf="http://www.w3.org/1999/02/22-rdf-syntax-ns#">
      <rdf:Description rdf:about=""/>
   </rdf:RDF>
</x:xmpmeta>
                                                                                                    
                                                                                                    
                                                                                                    
                                                                                                    
                                                                                                    
                                                                                                    
                                                                                                    
                                                                                                    
                                                                                                    
                                                                                                    
                                                                                                    
                                                                                                    
                                                                                                    
                                                                                                    
                                                                                                    
                                                                                                    
                                                                                                    
                                                                                                    
                                                                                                    
                                                                                                    
                           
<?xpacket end="w"?></metadata>
<defs>
    <style>
      .cls-1 {
        fill: #fff;
        fill-rule: evenodd;
      }
    </style>
  </defs>
  <path id="Forma_1" data-name="Forma 1" class="cls-1" d="M284.53,210.7c-0.8,1.2-.8,2.4-1.2,4a9.624,9.624,0,1,0,19.182,1.6,19.612,19.612,0,0,1,.4-4.4v-4.4a105.718,105.718,0,0,0-5.6-33.587c-4.8-13.994-13.188-26.389-23.179-36.784a101.137,101.137,0,0,0-44.758-25.99,105.971,105.971,0,0,0-25.177-3.2,67.682,67.682,0,0,0-8.792.4l-8.392,1.2c-5.2.8-8.792,6-7.593,10.8,0.8,5.2,6,8.8,10.79,7.6a39.34,39.34,0,0,1,6.794-.8h1.2c2,0,4-.4,5.994-0.4a79.042,79.042,0,0,1,56.748,23.59A80.589,80.589,0,0,1,284.53,206.3v4.4Zm52.751,8.8a9.624,9.624,0,1,0,19.182,1.6c0.4-4.4.4-8.8,0.4-13.194a179.273,179.273,0,0,0-2-25.59A153.326,153.326,0,0,0,216.193,55.164c-4-.4-8.392-0.4-12.388-0.4-4.4,0-8.792,0-13.188.4s-8.792.8-13.188,1.6c-5.195.8-8.792,6-7.593,10.8,0.8,5.2,5.995,8.8,10.79,7.6,2.8-.4,5.195-0.8,7.993-1.2,1.2,0,2.4-.4,3.6-0.4,4-.4,7.993-0.4,11.59-0.4a137.661,137.661,0,0,1,38.764,5.6,132.825,132.825,0,0,1,56.348,33.587,137.341,137.341,0,0,1,29.972,45.181,135.213,135.213,0,0,1,9.591,49.58v4A32.726,32.726,0,0,0,337.281,219.5ZM350.868,61.162A207.42,207.42,0,0,0,203.405-.013c-5.994,0-11.989.4-17.983,0.8a138.575,138.575,0,0,0-17.984,2.4c-5.195.8-8.792,6-7.593,10.8,0.8,5.2,6,8.8,10.79,7.6,2.8-.4,5.2-0.8,7.993-1.2a59.593,59.593,0,0,1,8.392-.8c5.595-.4,10.79-0.8,16.385-0.8A188.34,188.34,0,0,1,392.03,207.5v8.8c0,2.4-.4,4.8-0.4,7.6a9.624,9.624,0,1,0,19.182,1.6c0.4-6,.8-12,0.8-17.592A207.071,207.071,0,0,0,350.868,61.162Zm45.958,242.3-70.735-37.984c-23.578-12.8-24.377-4.4-49.154,21.991-6,6.4-17.184,23.191-30.372,19.992-27.574-6.8-79.127-47.181-95.911-65.573-7.993-8.8-42.361-50.78-42.761-64.374-0.8-20.792,44.759-31.187,29.973-70.771L106.3,35.972C76.722-32-6,76.755.793,127.534,18.376,252.683,237.773,455,360.06,388.228,387.235,373.034,424,319.856,396.826,303.462Z"/>
</svg>
